<?xml version="1.0" standalone="no"?>
<!DOCTYPE svg PUBLIC "-//W3C//DTD SVG 20010904//EN"
 "http://www.w3.org/TR/2001/REC-SVG-20010904/DTD/svg10.dtd">
<svg version="1.0" xmlns="http://www.w3.org/2000/svg"
 width="24.000000pt" height="24.000000pt" viewBox="0 0 24.000000 24.000000"
 preserveAspectRatio="xMidYMid meet">

<g transform="translate(0.000000,24.000000) scale(0.100000,-0.100000)"
fill="#000000" stroke="none">
<path d="M84 233 c-12 -2 -34 -17 -50 -34 -23 -24 -28 -38 -28 -79 0 -43 5
-55 31 -82 62 -61 162 -36 192 48 12 34 11 44 -2 76 -23 55 -82 84 -143 71z
m103 -28 c35 -23 49 -82 29 -128 -34 -83 -150 -85 -190 -3 -17 36 -18 43 -5
80 24 69 101 93 166 51z"/>
<path d="M91 123 c1 -26 3 -40 6 -30 6 23 20 22 33 -4 7 -11 14 -18 17 -15 3
3 0 13 -7 22 -11 12 -11 17 -1 23 22 14 8 46 -22 49 -26 3 -27 2 -26 -45z m44
17 c0 -8 -8 -16 -17 -18 -13 -2 -18 3 -18 18 0 15 5 20 18 18 9 -2 17 -10 17
-18z"/>
</g>
</svg>
